# xmcd
#
# Track frame offsets: 
#        150
#        8467
#        19841
#        30440
#        44700
#        55056
#        72912
#        81628
#        90049
#        100246
#        108262
#        116995
#        125831
#        136039
#        143901
#        154149
#        161241
#        170269
#        178537
#        187602
#
# Disc length: 2605 seconds
#
# Revision: 0
# Processed by: cddbd v1.5.2PL0 Copyright (c) Steve Scherf et al.
# Submitted via: ExactAudioCopyFreeDBPlugin 1.0
#
DISCID=020a2b14
DTITLE=Eddie Cochran - Elvis and Friends CD 11
DYEAR=1900
DGENRE=
TTITLE0=Pretty Girl
TTITLE1=I Almost Lost My Mind
TTITLE2=Jeannie, Jeannie, Jeannie
TTITLE3=Milk Cow Blues
TTITLE4=Hallelujah, I Love Her
TTITLE5=Eddie´s Blues
TTITLE6=My Love To Remember
TTITLE7=Never Fell
TTITLE8=My Way
TTITLE9=Guybo
TTITLE10=C´mon Everybody
TTITLE11=Proud Of You
TTITLE12=I Remember
TTITLE13=Twenty Flight...
TTITLE14=Three Steps To Heaven
TTITLE15=Teenage Cutie
TTITLE16=Sittin´ In The Balcony
TTITLE17=Blue Suede Blues
TTITLE18=Summertime Blues
TTITLE19=Long Tall Sally
EXTD=
EXTT0=
EXTT1=
EXTT2=
EXTT3=
EXTT4=
EXTT5=
EXTT6=
EXTT7=
EXTT8=
EXTT9=
EXTT10=
EXTT11=
EXTT12=
EXTT13=
EXTT14=
EXTT15=
EXTT16=
EXTT17=
EXTT18=
EXTT19=
PLAYORDER=
